<?xml version="1.0" standalone="no"?>
<!DOCTYPE svg PUBLIC "-//W3C//DTD SVG 20010904//EN"
 "http://www.w3.org/TR/2001/REC-SVG-20010904/DTD/svg10.dtd">
<svg version="1.0" xmlns="http://www.w3.org/2000/svg"
 width="481.000000pt" height="481.000000pt" viewBox="0 0 481.000000 481.000000"
 preserveAspectRatio="xMidYMid meet">
<metadata>
Created by potrace 1.11, written by Peter Selinger 2001-2013
</metadata>
<g transform="translate(0.000000,481.000000) scale(0.100000,-0.100000)"
fill="#000000" stroke="none">
<path d="M2140 4799 c-947 -115 -1720 -743 -2019 -1639 -91 -271 -126 -518
-118 -825 10 -377 97 -718 268 -1045 369 -704 1059 -1182 1849 -1280 108 -13
450 -13 560 0 812 98 1514 598 1876 1335 123 250 207 541 235 813 17 166 7
486 -21 641 -90 511 -315 947 -675 1306 -362 363 -790 583 -1310 676 -136 24
-511 35 -645 18z m547 -154 c916 -119 1671 -790 1898 -1685 46 -184 57 -268
62 -491 7 -288 -14 -467 -84 -704 -52 -179 -170 -439 -254 -562 -58 -83 -226
-140 -388 -131 -152 9 -285 69 -412 186 -58 54 -139 149 -139 164 0 3 37 22
83 43 230 106 267 125 305 160 94 85 68 203 -55 247 -49 17 -220 17 -293 -1
-145 -34 -346 -159 -566 -353 -186 -163 -195 -170 -198 -167 -4 4 215 487 354
782 l74 157 171 109 c254 163 339 226 446 331 112 110 171 193 216 305 46 112
45 118 -24 139 -177 56 -326 29 -443 -80 -67 -62 -129 -148 -235 -324 -214
-354 -299 -443 -620 -658 -308 -205 -816 -461 -1102 -556 -56 -19 -117 -30
-187 -35 -112 -8 -148 -22 -168 -67 -6 -13 -9 -27 -6 -30 14 -14 243 -3 338
16 266 54 462 141 957 426 128 74 264 150 303 169 l70 35 -19 -47 c-10 -27
-74 -172 -141 -323 -67 -151 -138 -324 -158 -385 -21 -61 -45 -116 -56 -124
-23 -17 -46 -71 -46 -109 0 -36 27 -117 44 -131 9 -7 24 -4 53 10 64 32 121
86 196 188 73 100 140 176 170 192 14 8 25 4 48 -15 40 -34 96 -34 208 -1 138
41 137 41 261 -79 131 -127 286 -231 408 -277 117 -43 241 -51 321 -20 30 11
56 19 58 17 2 -2 -45 -54 -104 -116 -372 -390 -833 -623 -1363 -691 -122 -16
-418 -16 -540 0 -663 85 -1247 449 -1613 1006 -244 373 -367 786 -367 1233 0
374 71 682 231 1001 115 229 128 247 204 283 172 80 375 70 550 -27 86 -48
184 -132 239 -206 56 -75 61 -67 -83 -130 -232 -100 -288 -139 -311 -216 -11
-37 -10 -46 9 -87 32 -65 86 -89 213 -94 237 -10 428 87 783 399 180 157 170
151 152 109 -35 -82 -290 -638 -354 -771 l-70 -145 -179 -115 c-294 -188 -422
-289 -524 -416 -71 -88 -152 -246 -154 -299 -1 -38 -1 -38 59 -57 172 -53 327
-22 442 90 67 65 115 133 229 319 133 219 177 284 246 359 230 251 912 650
1438 842 72 26 121 37 198 43 131 11 168 23 188 61 8 16 12 34 9 39 -8 13
-165 13 -261 -1 -261 -36 -501 -136 -975 -407 -261 -149 -412 -232 -422 -232
-7 0 52 142 148 355 91 202 159 370 180 441 9 32 30 73 45 90 33 38 45 81 35
131 -10 53 -37 103 -56 103 -27 0 -131 -75 -169 -122 -20 -24 -53 -68 -75 -98
-60 -84 -102 -132 -142 -163 l-37 -27 -26 25 c-40 38 -84 41 -186 12 -171 -49
-154 -53 -269 60 -171 166 -339 272 -500 313 -94 24 -142 25 -219 5 -33 -9
-60 -14 -62 -13 -8 8 163 182 260 265 344 294 773 483 1206 532 129 14 420 12
547 -4z m-1052 -1425 c-41 -80 -233 -170 -363 -170 -48 0 -52 2 -43 19 24 43
156 109 313 156 110 32 112 32 93 -5z m2041 -219 c-23 -44 -106 -131 -244
-253 -107 -95 -124 -108 -118 -83 14 55 60 121 145 205 73 72 196 160 224 160
4 0 1 -13 -7 -29z m-2214 -893 c-29 -66 -106 -161 -172 -215 -67 -54 -181
-125 -188 -118 -12 12 79 124 162 199 50 44 118 107 151 138 33 31 61 53 63
48 2 -5 -5 -28 -16 -52z m2108 -356 c0 -15 -54 -59 -110 -90 -61 -33 -218 -88
-282 -98 l-41 -7 19 33 c33 57 141 119 257 150 75 20 157 26 157 12z"/>
</g>
</svg>
